<svg width="134" height="136" viewBox="0 0 134 136" fill="none" xmlns="http://www.w3.org/2000/svg">
<path d="M130.915 111.667V14.157H112.672V14.1565H105.161C104.575 11.726 102.417 9.91455 99.8448 9.91455H87.4228C84.8506 9.91455 82.6922 11.726 82.1064 14.1565H74.6475V14.157H56.4065V89.2798H59.0042V16.7937H74.6475V26.9214H112.672V16.7937H128.317V109.802H115.675V122.634H59.0039V102.859H56.4062V125.271H117.512L130.915 111.667ZM87.4225 12.5513H99.8445C100.966 12.5513 101.939 13.2049 102.415 14.1565H84.8516C85.3275 13.2049 86.3011 12.5513 87.4225 12.5513ZM110.074 24.2847H77.2449V16.7937H81.9441H105.323H110.074V24.2847ZM126.48 112.439L118.273 120.77V112.439H126.48Z" fill="#136160"/>
<path d="M104.024 19.2207H83.2429V21.8574H104.024V19.2207Z" fill="#136160"/>
<path d="M109.844 32.7407V38.9752H103.701V46.6217H109.844V52.8563H117.377V46.6217H123.519V38.9752H117.377V32.7407H109.844ZM120.921 41.612V43.985H114.779V50.2195H112.441V43.985H106.299V41.612H112.441V35.3774H114.779V41.612H120.921Z" fill="#136160"/>
<path d="M79.9414 116.218H64.1121V118.855H79.9414V116.218Z" fill="#136160"/>
<path d="M122.22 60.708H96.1765V63.3447H122.22V60.708Z" fill="#136160"/>
<path d="M93.1243 60.708H89.4346V63.3447H93.1243V60.708Z" fill="#136160"/>
<path d="M122.22 65.3296H80.9802V67.9663H122.22V65.3296Z" fill="#136160"/>
<path d="M122.22 90.5928H96.1765V93.2295H122.22V90.5928Z" fill="#136160"/>
<path d="M93.1243 90.5928H89.4346V93.2295H93.1243V90.5928Z" fill="#136160"/>
<path d="M122.22 95.2146H80.9802V97.8513H122.22V95.2146Z" fill="#136160"/>
<path d="M122.22 75.6506H96.1765V78.2874H122.22V75.6506Z" fill="#136160"/>
<path d="M93.1243 75.6506H89.4346V78.2874H93.1243V75.6506Z" fill="#136160"/>
<path d="M122.22 80.2722H80.9802V82.9089H122.22V80.2722Z" fill="#136160"/>
<path d="M24.7975 93.4224V110.494C24.7975 117.898 30.7324 123.922 38.0271 123.922C45.3218 123.922 51.2567 117.898 51.2567 110.494V107.921C51.2567 103.872 54.5022 100.577 58.4914 100.577C67.0081 100.577 73.9369 93.5445 73.9369 84.8997V60.7078H71.108V55.6793C75.3661 55.0397 78.6443 51.3061 78.6443 46.8089C78.6443 41.864 74.6808 37.8409 69.8092 37.8409C64.9375 37.8409 60.974 41.864 60.974 46.8089C60.974 51.3061 64.2523 55.0397 68.5103 55.6793V60.7078H65.7262V84.8997C65.7262 88.9489 62.4807 92.2435 58.4912 92.2435C49.9748 92.2435 43.046 99.2767 43.046 107.921V110.494C43.046 113.303 40.7944 115.588 38.0271 115.588C35.2598 115.588 33.0082 113.303 33.0082 110.494V93.4224C45.0127 91.4103 53.9255 80.8397 53.9255 68.367V45.4911H51.0562V29.8271H46.3586C46.0952 27.0451 44.9743 25.3684 43.3009 25.3684C40.1626 25.3684 37.6094 27.96 37.6094 31.1455C37.6094 34.3309 40.1626 36.9228 43.3009 36.9228C43.9602 36.9228 45.1722 36.6296 45.8842 34.6665C46.111 34.0406 46.2692 33.2836 46.3523 32.4638H48.4583V45.4911H45.7149V68.367C45.7149 77.7766 38.1731 85.4318 28.9026 85.4318C19.6321 85.4318 12.0903 77.7766 12.0903 68.367V57.771H9.49264V68.367C9.49264 79.2302 18.2 88.0685 28.9026 88.0685C39.6052 88.0685 48.3125 79.2302 48.3125 68.367V48.1278H51.3276V68.367C51.3276 79.8973 42.8276 89.6142 31.5564 90.9692L30.4103 91.1065V110.494C30.4103 114.757 33.827 118.225 38.0269 118.225C42.2267 118.225 45.6434 114.757 45.6434 110.494V107.921C45.6434 100.731 51.4069 94.8802 58.4909 94.8802C63.9125 94.8802 68.3236 90.4033 68.3236 84.8997V63.3445H71.3387V84.8997C71.3387 92.0906 65.575 97.9407 58.4909 97.9407C53.0694 97.9407 48.6585 102.418 48.6585 107.921V110.494C48.6585 116.444 43.8892 121.286 38.0266 121.286C32.1639 121.286 27.3946 116.444 27.3946 110.494V91.1065L26.2486 90.9692C14.9771 89.6142 6.47728 79.8976 6.47728 68.367V48.1278H9.49238V54.4588H12.09V45.4911H9.24404V32.4638H11.3437C11.6071 35.2458 12.728 36.9228 14.4014 36.9228C17.5397 36.9228 20.0929 34.3311 20.0929 31.1455C20.0929 27.9598 17.5397 25.3684 14.4014 25.3684C13.7421 25.3684 12.5301 25.6616 11.8181 27.6246C11.591 28.2506 11.4331 29.0073 11.35 29.8271H6.64639V45.4911H3.87988V68.367C3.87988 80.8397 12.793 91.4103 24.7975 93.4224ZM63.5714 46.8091C63.5714 43.3181 66.3694 40.4779 69.8089 40.4779C73.2485 40.4779 76.0464 43.3179 76.0464 46.8091C76.0464 50.3004 73.2485 53.1404 69.8089 53.1404C66.3694 53.1404 63.5714 50.3004 63.5714 46.8091ZM43.1848 34.2837C41.5326 34.2215 40.2071 32.8374 40.2071 31.1455C40.2071 29.4535 41.5326 28.0695 43.1848 28.0072C43.4313 28.2975 43.8214 29.3968 43.8214 31.1455C43.8214 32.8941 43.4313 33.9934 43.1848 34.2837ZM14.5175 28.0072C16.1697 28.0695 17.4952 29.4532 17.4952 31.1455C17.4952 32.8377 16.1697 34.2215 14.5175 34.2837C14.271 33.9934 13.8809 32.8941 13.8809 31.1455C13.8806 29.3968 14.2708 28.2973 14.5175 28.0072Z" fill="#136160"/>
<path d="M74.1551 46.8092C74.1551 44.3768 72.2056 42.3979 69.8093 42.3979C67.4129 42.3979 65.4634 44.3768 65.4634 46.8092C65.4634 49.2416 67.4129 51.2204 69.8093 51.2204C72.2056 51.2204 74.1551 49.2416 74.1551 46.8092ZM68.0608 46.8092C68.0608 45.8307 68.8453 45.0347 69.809 45.0347C70.7727 45.0347 71.5572 45.8307 71.5572 46.8092C71.5572 47.7877 70.7727 48.5837 69.809 48.5837C68.8453 48.5837 68.0608 47.7879 68.0608 46.8092Z" fill="#136160"/>
</svg>
