<svg width="134" height="134" viewBox="0 0 134 134" fill="none" xmlns="http://www.w3.org/2000/svg">
<path d="M30.1846 81.5547C30.1846 81.8647 30.3077 82.162 30.5269 82.3813C30.7462 82.6005 31.0435 82.7236 31.3535 82.7236H91.4228C91.7328 82.7236 92.0301 82.6005 92.2494 82.3813C92.4686 82.162 92.5917 81.8647 92.5917 81.5547C92.5917 81.2447 92.4686 80.9473 92.2494 80.7281C92.0301 80.5089 91.7328 80.3857 91.4228 80.3857H31.3535C31.0435 80.3857 30.7462 80.5089 30.5269 80.7281C30.3077 80.9473 30.1846 81.2447 30.1846 81.5547Z" fill="#136160"/>
<path d="M91.4227 89.2314C91.7327 89.2314 92.0301 89.1083 92.2493 88.8891C92.4685 88.6698 92.5917 88.3725 92.5917 88.0625C92.5917 87.7525 92.4685 87.4552 92.2493 87.2359C92.0301 87.0167 91.7327 86.8936 91.4227 86.8936H81.2373C80.9273 86.8936 80.63 87.0167 80.4107 87.2359C80.1915 87.4552 80.0684 87.7525 80.0684 88.0625C80.0684 88.3725 80.1915 88.6698 80.4107 88.8891C80.63 89.1083 80.9273 89.2314 81.2373 89.2314H91.4227Z" fill="#136160"/>
<path d="M76.6243 88.0625C76.6243 87.7525 76.5011 87.4552 76.2819 87.2359C76.0627 87.0167 75.7654 86.8936 75.4553 86.8936H31.3535C31.0435 86.8936 30.7462 87.0167 30.5269 87.2359C30.3077 87.4552 30.1846 87.7525 30.1846 88.0625C30.1846 88.3725 30.3077 88.6698 30.5269 88.8891C30.7462 89.1083 31.0435 89.2314 31.3535 89.2314H75.4553C75.7654 89.2314 76.0627 89.1083 76.2819 88.8891C76.5011 88.6698 76.6243 88.3725 76.6243 88.0625Z" fill="#136160"/>
<path d="M84.0643 99.8818L81.018 99.8693C80.1446 99.8705 79.3072 100.218 78.689 100.835C76.6792 102.866 75.4025 103.46 75.0144 103.446C75.1213 103.029 75.2796 102.628 75.4857 102.251C75.8875 101.428 76.303 100.577 75.8241 99.7574C75.6751 99.5134 75.4653 99.3123 75.2153 99.1737C74.9652 99.0352 74.6835 98.9639 74.3976 98.9669C73.0842 98.8905 71.6415 100.003 70.1176 101.183C69.7997 101.429 69.4045 101.734 69.04 101.996C69.0813 101.865 69.1229 101.739 69.1598 101.626C69.6253 100.206 70.4046 97.8294 68.3419 96.7437C67.0002 96.0377 65.1309 96.7538 62.4591 98.9976C61.3457 99.9435 60.2875 100.952 59.2896 102.019C59.0831 102.248 58.9753 102.549 58.9895 102.857C59.0038 103.165 59.1391 103.455 59.3659 103.663C59.5927 103.872 59.8926 103.982 60.2006 103.971C60.5085 103.96 60.7995 103.827 61.0102 103.602C63.4653 100.935 66.4372 98.6749 67.2673 98.8211C67.5553 99.0156 67.17 100.191 66.9383 100.898C66.5426 102.104 66.1336 103.352 66.8846 104.29C67.2273 104.719 68.0293 105.309 69.5498 104.451C70.2471 104.023 70.9148 103.549 71.5484 103.031C71.951 102.72 72.5334 102.269 73.0704 101.906C72.6336 102.95 72.2801 104.426 73.6668 105.38C74.0523 105.646 74.5108 105.786 74.9791 105.78C76.3781 105.78 78.1774 104.676 80.3511 102.479C80.526 102.305 80.7622 102.208 81.0086 102.207L84.0548 102.219H84.0597C84.3697 102.22 84.6673 102.098 84.887 101.879C85.1066 101.66 85.2304 101.363 85.231 101.053C85.2316 100.743 85.1091 100.445 84.8903 100.226C84.6715 100.006 84.3744 99.8822 84.0644 99.8815L84.0643 99.8818Z" fill="#136160"/>
<path d="M91.5248 99.9626H88.0991C87.7891 99.9626 87.4918 100.086 87.2726 100.305C87.0533 100.524 86.9302 100.822 86.9302 101.132C86.9302 101.442 87.0533 101.739 87.2726 101.958C87.4918 102.177 87.7891 102.301 88.0991 102.301H91.5248C91.8348 102.301 92.1321 102.177 92.3513 101.958C92.5706 101.739 92.6937 101.442 92.6937 101.132C92.6937 100.822 92.5706 100.524 92.3513 100.305C92.1321 100.086 91.8348 99.9626 91.5248 99.9626Z" fill="#136160"/>
<path d="M43.8491 71.9739H66.0434C66.3535 71.9739 66.6508 71.8507 66.87 71.6315C67.0892 71.4123 67.2124 71.1149 67.2124 70.8049C67.2124 70.4949 67.0892 70.1976 66.87 69.9783C66.6508 69.7591 66.3535 69.636 66.0434 69.636H43.8491C43.5361 69.6356 43.236 69.5111 43.0146 69.2898C42.7933 69.0684 42.6688 68.7684 42.6685 68.4553V55.5627C42.6688 55.2497 42.7933 54.9496 43.0146 54.7283C43.236 54.5069 43.5361 54.3824 43.8491 54.3821H76.4508C76.7638 54.3824 77.0639 54.5069 77.2852 54.7283C77.5066 54.9496 77.6311 55.2497 77.6314 55.5627V68.4553C77.6311 68.7684 77.5066 69.0684 77.2852 69.2898C77.0639 69.5111 76.7638 69.6356 76.4508 69.636H72.1048C71.7948 69.636 71.4974 69.7591 71.2782 69.9783C71.059 70.1976 70.9358 70.4949 70.9358 70.8049C70.9358 71.1149 71.059 71.4123 71.2782 71.6315C71.4974 71.8507 71.7948 71.9739 72.1048 71.9739H76.4508C77.3836 71.9728 78.278 71.6018 78.9376 70.9422C79.5972 70.2825 79.9683 69.3882 79.9693 68.4553V55.5627C79.9683 54.6298 79.5973 53.7355 78.9376 53.0759C78.278 52.4163 77.3837 52.0452 76.4508 52.0442H43.8491C42.9162 52.0452 42.0219 52.4163 41.3623 53.0759C40.7026 53.7355 40.3316 54.6298 40.3306 55.5627V68.4553C40.3316 69.3882 40.7026 70.2825 41.3623 70.9422C42.0219 71.6018 42.9162 71.9728 43.8491 71.9739V71.9739Z" fill="#136160"/>
<path d="M127.558 35.4851C128.575 34.3469 129.728 33.057 129.728 31.3685C129.728 29.68 128.575 28.3903 127.558 27.2521C126.971 26.5958 126.365 25.9175 126.185 25.3624C125.988 24.7584 126.08 23.8195 126.168 22.9116C126.313 21.421 126.477 19.7315 125.521 18.418C124.556 17.0923 122.89 16.7272 121.419 16.4053C120.536 16.2118 119.622 16.0116 119.121 15.6471C118.633 15.2914 118.167 14.4923 117.716 13.7196C116.953 12.4099 116.087 10.9256 114.508 10.4128C112.987 9.91925 111.446 10.5909 110.086 11.184C109.237 11.5543 108.358 11.9373 107.699 11.9373C107.04 11.9373 106.162 11.5542 105.313 11.184C103.953 10.5911 102.412 9.91891 100.891 10.4128C99.3112 10.9257 98.4459 12.4099 97.6825 13.7194C97.2321 14.4921 96.7662 15.2912 96.2774 15.6468C95.7766 16.0114 94.8631 16.2115 93.9797 16.4051C92.5091 16.727 90.8425 17.092 89.8775 18.418C88.9215 19.7316 89.0857 21.421 89.2307 22.9114C89.319 23.8193 89.4103 24.7582 89.2142 25.3622C89.0338 25.9172 88.4274 26.5958 87.841 27.2518C86.8236 28.3901 85.6704 29.6803 85.6704 31.3685C85.6726 31.8208 85.7551 32.2692 85.914 32.6927H6.49848C5.75184 32.6933 5.03596 32.9901 4.50801 33.5181C3.98006 34.046 3.6832 34.7619 3.68262 35.5085V120.514C3.6832 121.261 3.98005 121.977 4.508 122.505C5.03595 123.033 5.75184 123.33 6.49848 123.33H114.875C115.622 123.33 116.338 123.033 116.866 122.505C117.394 121.977 117.691 121.261 117.691 120.514V65.8466H123.406C123.855 65.8471 124.292 65.7015 124.65 65.4317C125.009 65.162 125.27 64.7827 125.394 64.3514C125.519 63.9201 125.499 63.46 125.338 63.0408C125.178 62.6217 124.885 62.2662 124.505 62.028C120.032 59.2646 118.067 53.6324 117.226 49.8381C117.397 49.5638 117.559 49.2871 117.716 49.0176C118.167 48.2449 118.633 47.4458 119.121 47.0901C119.622 46.7256 120.536 46.5255 121.419 46.3319C122.89 46.01 124.556 45.645 125.521 44.3192C126.477 43.0057 126.313 41.3162 126.168 39.8259C126.08 38.9179 125.989 37.9789 126.185 37.3748C126.365 36.8197 126.971 36.1414 127.558 35.4851ZM90.8522 62.028C90.4698 62.2608 90.1749 62.6134 90.0133 63.031C89.8518 63.4485 89.8325 63.9077 89.9586 64.3373C90.0785 64.7729 90.3387 65.1569 90.6989 65.4297C91.0591 65.7026 91.4991 65.8491 91.951 65.8466H101.352C101.519 65.8465 101.684 65.8108 101.835 65.7418C101.987 65.6728 102.123 65.5721 102.233 65.4465C102.374 65.2821 104.552 62.7315 106.402 57.6795V104.211C104.427 104.496 102.597 105.412 101.185 106.823C99.7741 108.233 98.8574 110.063 98.5724 112.038H22.8014C22.5165 110.063 21.6002 108.234 20.1894 106.823C18.7787 105.413 16.9493 104.496 14.9746 104.211V51.8114C16.9493 51.5265 18.7787 50.6102 20.1894 49.1995C21.6002 47.7887 22.5165 45.9593 22.8014 43.9847H89.665C89.7294 44.1 89.8003 44.2116 89.8774 44.319C90.8423 45.6449 92.509 46.01 93.9796 46.3319C94.863 46.5254 95.7765 46.7256 96.2774 47.0901C96.7661 47.4458 97.232 48.2449 97.6824 49.0176C97.8311 49.2727 97.984 49.5344 98.1449 49.7943C97.3112 53.5873 95.3521 59.2462 90.8522 62.028V62.028ZM99.6816 53.1206C99.8109 52.7093 99.9262 52.3073 100.033 51.9135C100.3 52.0872 100.588 52.2254 100.891 52.3245C102.412 52.8186 103.953 52.1461 105.313 51.5533C105.458 51.4901 105.603 51.4274 105.749 51.3652C104.329 58.2444 101.682 62.2847 100.78 63.5086H92.842C95.8604 61.3448 98.2139 57.7731 99.6816 53.1207V53.1206ZM115.093 120.514C115.094 120.543 115.088 120.571 115.077 120.598C115.066 120.624 115.05 120.648 115.03 120.669C115.009 120.689 114.985 120.705 114.959 120.716C114.932 120.727 114.904 120.732 114.875 120.732H6.49848C6.4407 120.732 6.38539 120.709 6.34454 120.668C6.30369 120.627 6.28059 120.572 6.28027 120.514V35.5085C6.2806 35.4508 6.30369 35.3954 6.34455 35.3546C6.3854 35.3137 6.44071 35.2906 6.49848 35.2903H87.6673C87.7254 35.3557 87.7834 35.4207 87.841 35.4851C88.4274 36.1412 89.0338 36.8197 89.2142 37.3748C89.4102 37.9788 89.319 38.9178 89.2307 39.8256C89.1815 40.3306 89.1312 40.8586 89.1221 41.387H21.5935C21.249 41.3871 20.9187 41.524 20.6752 41.7676C20.4316 42.0111 20.2948 42.3414 20.2946 42.6858C20.2927 44.4407 19.5947 46.1231 18.3539 47.3639C17.113 48.6048 15.4306 49.3027 13.6758 49.3047C13.3314 49.3048 13.0011 49.4417 12.7575 49.6852C12.514 49.9288 12.3771 50.2591 12.377 50.6035V105.419C12.3771 105.764 12.514 106.094 12.7575 106.338C13.0011 106.581 13.3314 106.718 13.6758 106.718C15.4306 106.72 17.113 107.418 18.3539 108.659C19.5947 109.9 20.2927 111.582 20.2946 113.337C20.2948 113.681 20.4316 114.012 20.6752 114.255C20.9187 114.499 21.249 114.636 21.5935 114.636H99.7803C100.125 114.636 100.455 114.499 100.699 114.255C100.942 114.012 101.079 113.681 101.079 113.337C101.081 111.582 101.78 109.899 103.021 108.658C104.262 107.417 105.945 106.719 107.701 106.718C108.045 106.718 108.375 106.581 108.619 106.338C108.862 106.094 108.999 105.764 108.999 105.419V57.7929C110.84 62.7694 112.984 65.2832 113.127 65.4465C113.237 65.5723 113.372 65.6731 113.524 65.7422C113.676 65.8112 113.841 65.8468 114.008 65.8465H115.093V120.514ZM122.518 63.5087H114.577C113.672 62.2811 111.021 58.2351 109.605 51.3461C109.765 51.4142 109.926 51.4836 110.086 51.5534C111.115 52.0021 112.247 52.4958 113.396 52.4958C113.773 52.4977 114.149 52.4399 114.508 52.3245C114.798 52.23 115.075 52.0996 115.332 51.9363C115.438 52.3225 115.551 52.7167 115.678 53.1208C117.143 57.7731 119.497 61.3448 122.518 63.5086V63.5087ZM125.621 33.7541C124.855 34.6107 124.063 35.4968 123.714 36.5727C123.351 37.6914 123.469 38.9042 123.583 40.0773C123.688 41.1576 123.796 42.2749 123.421 42.7906C123.037 43.3185 121.932 43.5605 120.863 43.7944C119.718 44.0453 118.534 44.3045 117.593 44.9897C116.663 45.6663 116.058 46.7048 115.472 47.7095C114.917 48.662 114.342 49.647 113.706 49.8538C113.12 50.0436 112.106 49.6006 111.124 49.1724C110.031 48.6955 108.9 48.2024 107.699 48.2024C106.499 48.2024 105.368 48.6955 104.274 49.1724C103.293 49.6006 102.277 50.0436 101.693 49.8538C101.056 49.647 100.482 48.662 99.9265 47.7095C99.341 46.7051 98.7357 45.6663 97.8059 44.9897C96.8645 44.3048 95.6805 44.0453 94.5355 43.7946C93.467 43.5605 92.3621 43.3185 91.9779 42.7903C91.6025 42.2746 91.7112 41.1574 91.8162 40.077C91.9303 38.9042 92.0482 37.6914 91.6849 36.5728C91.3356 35.4969 90.5438 34.6108 89.7779 33.7542C89.0358 32.9236 88.2683 32.0652 88.2683 31.3686C88.2683 30.672 89.0358 29.8135 89.7779 28.983C90.5438 28.1263 91.3356 27.2402 91.6849 26.1644C92.0482 25.0457 91.9304 23.8328 91.8163 22.6602C91.7113 21.5797 91.6026 20.4625 91.978 19.9468C92.3622 19.4186 93.4672 19.1766 94.5356 18.9425C95.6807 18.6919 96.8648 18.4324 97.8061 17.7474C98.736 17.0709 99.3413 16.0323 99.9268 15.028C100.482 14.0754 101.056 13.0904 101.693 12.8837C101.797 12.8519 101.904 12.8367 102.012 12.8385C102.608 12.8385 103.453 13.2069 104.275 13.5651C105.368 14.042 106.499 14.5351 107.7 14.5351C108.9 14.5351 110.031 14.042 111.125 13.5651C112.107 13.1368 113.122 12.6937 113.706 12.8837C114.343 13.0904 114.917 14.0754 115.472 15.028C116.058 16.0323 116.663 17.0711 117.593 17.7478C118.535 18.4329 119.719 18.6922 120.864 18.9431C121.932 19.1769 123.037 19.419 123.421 19.9469C123.797 20.4626 123.688 21.5798 123.583 22.6602C123.469 23.8332 123.351 25.046 123.714 26.1648C124.064 27.2406 124.855 28.1267 125.621 28.9834C126.363 29.8137 127.131 30.6724 127.131 31.3687C127.131 32.0651 126.363 32.9238 125.621 33.7541V33.7541Z" fill="#136160"/>
<path d="M107.942 18.2701C105.351 18.2221 102.805 18.9434 100.624 20.3428C98.4431 21.7422 96.7264 23.7569 95.6907 26.132C94.655 28.5071 94.3469 31.136 94.8053 33.6863C95.2637 36.2365 96.4681 38.5935 98.2661 40.4593C99.4903 41.7263 100.957 42.7342 102.578 43.4231C104.2 44.112 105.943 44.4678 107.705 44.4692C107.809 44.4692 107.913 44.468 108.017 44.4657C108.361 44.4574 108.688 44.3127 108.926 44.0634C109.163 43.814 109.292 43.4804 109.284 43.136C109.276 42.7916 109.131 42.4646 108.882 42.2269C108.632 41.9892 108.299 41.8603 107.954 41.8685C105.839 41.9199 103.758 41.3314 101.983 40.18C100.209 39.0286 98.8228 37.3681 98.0076 35.4159C97.1924 33.4637 96.9857 31.3108 97.4146 29.2392C97.8436 27.1675 98.8881 25.2737 100.411 23.8057C102.166 22.1158 104.453 21.0881 106.881 20.8983C109.31 20.7085 111.728 21.3685 113.724 22.7654C115.719 24.1622 117.167 26.2091 117.82 28.5558C118.473 30.9024 118.29 33.403 117.303 35.6297C117.163 35.9447 117.154 36.3022 117.278 36.6236C117.402 36.945 117.649 37.204 117.964 37.3436C118.279 37.4832 118.636 37.492 118.958 37.368C119.279 37.244 119.538 36.9974 119.678 36.6825C120.554 34.7064 120.927 32.5442 120.765 30.3887C120.603 28.2332 119.91 26.1513 118.748 24.3285C117.587 22.5057 115.992 20.9986 114.106 19.9415C112.221 18.8845 110.103 18.3103 107.942 18.2701V18.2701Z" fill="#136160"/>
<path d="M114.987 38.9315C114.037 39.8506 112.921 40.5811 111.698 41.0842C111.538 41.1477 111.393 41.2423 111.27 41.3625C111.148 41.4826 111.05 41.6259 110.983 41.784C110.916 41.9422 110.881 42.1121 110.88 42.2838C110.879 42.4556 110.912 42.6259 110.977 42.7847C111.043 42.9436 111.139 43.0879 111.26 43.2093C111.382 43.3308 111.526 43.4269 111.685 43.4922C111.844 43.5575 112.014 43.5906 112.186 43.5896C112.358 43.5886 112.528 43.5536 112.686 43.4865C114.211 42.8594 115.604 41.9485 116.79 40.8021C117.038 40.563 117.181 40.2353 117.187 39.8908C117.194 39.5464 117.063 39.2135 116.824 38.9655C116.585 38.7174 116.257 38.5745 115.913 38.5681C115.568 38.5617 115.235 38.6924 114.987 38.9315V38.9315Z" fill="#136160"/>
<path d="M112.579 34.8036L111.937 32.8292L113.617 31.6091C113.972 31.351 114.236 30.987 114.372 30.5694C114.508 30.1517 114.508 29.7019 114.372 29.2842C114.236 28.8666 113.972 28.5026 113.617 28.2445C113.261 27.9863 112.834 27.8473 112.394 27.8473H110.318L109.677 25.8729C109.541 25.4553 109.277 25.0914 108.921 24.8333C108.566 24.5753 108.138 24.4363 107.699 24.4363C107.26 24.4363 106.832 24.5753 106.477 24.8333C106.122 25.0914 105.857 25.4553 105.722 25.8729L105.08 27.8473H103.004C102.565 27.8473 102.137 27.9863 101.782 28.2444C101.427 28.5026 101.162 28.8665 101.027 29.2842C100.891 29.7018 100.891 30.1517 101.027 30.5693C101.162 30.987 101.427 31.3509 101.782 31.6091L103.461 32.8292L102.82 34.8036C102.684 35.2213 102.683 35.6715 102.819 36.0894C102.954 36.5074 103.219 36.8717 103.574 37.1299C103.93 37.3882 104.358 37.5271 104.797 37.5268C105.237 37.5266 105.665 37.387 106.02 37.1283L107.699 35.9081L109.379 37.1283C109.734 37.3864 110.162 37.5254 110.601 37.5254C111.04 37.5254 111.468 37.3864 111.823 37.1283C112.178 36.8702 112.443 36.5063 112.579 36.0887C112.714 35.6711 112.714 35.2212 112.579 34.8036H112.579ZM110.411 31.0482C110.055 31.3057 109.79 31.6696 109.654 32.0874C109.519 32.5052 109.519 32.9553 109.656 33.3729L110.109 34.7691L108.922 33.9067C108.567 33.6477 108.139 33.5082 107.699 33.5081C107.26 33.5081 106.832 33.6476 106.477 33.9064L105.29 34.7692L105.743 33.3732C105.88 32.9556 105.88 32.5055 105.744 32.0877C105.609 31.6698 105.344 31.3059 104.988 31.0483L103.8 30.1853H105.268C105.707 30.1861 106.136 30.0474 106.491 29.7892C106.846 29.5311 107.111 29.1668 107.246 28.7488L107.699 27.3523L108.153 28.749C108.288 29.167 108.553 29.5312 108.908 29.7893C109.263 30.0475 109.691 30.1861 110.131 30.1854H111.599L110.411 31.0482Z" fill="#136160"/>
</svg>
