<svg width="139" height="139" viewBox="0 0 139 139" fill="none" xmlns="http://www.w3.org/2000/svg">
<path d="M115.975 86.7545L113.366 86.0774C111.105 94.794 105.168 102.113 97.077 106.157L98.2824 108.568C107.07 104.176 113.518 96.2247 115.975 86.7545Z" fill="#136160"/>
<path d="M122.693 118.307H11.5649V121.002H122.693V118.307Z" fill="#136160"/>
<path d="M17.3803 72.737C17.5448 71.8867 17.7041 71.0894 17.8588 70.3355L25.3048 73.075L26.2355 70.5455L18.4269 67.6725C19.4641 63.0158 20.2689 60.5278 20.94 58.7055C21.6804 56.6918 23.1613 55.087 25.11 54.1868C27.0587 53.2866 29.2408 53.1992 31.2555 53.941C33.27 54.6814 34.8751 56.1622 35.7753 58.1109C36.6753 60.0593 36.7631 62.2417 36.0227 64.2554C35.9273 64.5144 35.7869 64.8581 35.6069 65.2745L29.0608 62.866L28.1301 65.3955L34.4818 67.7326C33.49 69.822 32.128 72.5467 30.5796 75.4825H12.7118V78.2522C12.7118 79.0039 12.7342 79.7645 12.7784 80.5127C13.6641 95.5679 23.3114 108.165 36.5823 113.469H11.5649V116.164H50.6238H83.6341H122.693V113.469H97.6718C111.647 107.878 121.546 94.2003 121.546 78.2522V78.0357C123.267 77.76 124.899 77.0875 126.336 76.0523C128.784 74.2876 130.398 71.6761 130.882 68.6981C131.367 65.7192 130.662 62.7307 128.898 60.2836C127.647 58.5467 125.941 57.2384 124.023 56.4492C124.701 55.4795 125.132 54.3399 125.24 53.1505C125.301 52.4928 125.265 51.8262 125.133 51.1667C124.382 47.4717 120.764 45.075 117.067 45.8257C116.428 45.9556 115.819 46.1736 115.254 46.4696C115.243 46.4044 115.236 46.3391 115.225 46.2736C114.608 42.6608 112.621 39.5044 109.63 37.3861C103.455 33.0132 94.8741 34.4792 90.5009 40.6539C89.7983 41.6463 89.2433 42.7161 88.8344 43.8306C82.7382 42.3487 76.484 45.9383 74.7366 52.0217C73.9762 54.6658 74.1671 57.5063 75.2738 60.02L77.7405 58.9341C76.8872 56.9964 76.7403 54.8059 77.3268 52.7664C77.9966 50.4347 79.5342 48.5032 81.6565 47.328C83.6554 46.2219 85.9472 45.9114 88.1563 46.438C87.683 49.4441 88.2029 52.589 89.7438 55.3256L92.0925 54.0033C90.0093 50.3034 90.2478 45.6753 92.7006 42.2118C94.4024 39.8084 96.939 38.2114 99.8421 37.7155C102.745 37.2195 105.668 37.8837 108.071 39.586C110.475 41.2881 112.072 43.8244 112.568 46.7275C113.064 49.6306 112.4 52.5534 110.697 54.9569L112.897 56.5145C114.337 54.4817 115.178 52.1502 115.377 49.7312C115.965 49.0875 116.738 48.6431 117.604 48.4671C119.845 48.0129 122.036 49.4646 122.491 51.7004C122.571 52.1004 122.593 52.5047 122.556 52.9044C122.459 53.979 121.927 54.9865 121.112 55.684C119.983 55.5417 118.826 55.5625 117.677 55.7735L118.164 58.4246C121.423 57.8257 124.778 59.1742 126.712 61.8593C129.484 65.7052 128.609 71.0913 124.76 73.8658C123.323 74.9016 121.629 75.4598 119.86 75.4822H105.05C109.093 69.5797 112.504 69.2679 112.541 69.2655L112.514 69.2665L112.437 66.5723C111.888 66.5879 107.028 66.9769 101.844 75.4822H101.172C101.22 75.0461 101.251 74.6065 101.258 74.1642C101.317 70.3244 99.8671 66.7036 97.1745 63.9689C94.4811 61.2334 90.8842 59.727 87.0461 59.727C84.6467 59.727 82.2719 60.337 80.1774 61.4919C79.5609 61.8334 78.9098 62.156 78.2429 62.4504C74.8188 63.9597 71.2017 64.5675 67.7824 64.2069C67.4994 64.1772 67.2107 64.1632 66.9199 64.1586C63.7756 61.5307 60.2159 59.2734 57.4526 57.6788C57.3968 54.666 57.6631 51.6292 58.2494 48.6482L58.5655 47.0404H56.9271C56.171 47.0404 54.2393 47.2138 52.6348 48.8183C52.4817 48.9716 52.3391 49.1326 52.2046 49.2986C52.0701 49.1326 51.9275 48.9716 51.7744 48.8183C50.1696 47.2135 48.2382 47.0404 47.4821 47.0404H45.8437L46.1595 48.6479C46.7458 51.6292 47.0118 54.6658 46.9563 57.6772C44.6628 59.0001 41.8212 60.7785 39.1256 62.8466C39.3838 60.8623 39.0822 58.8413 38.2224 56.9802C37.6127 55.6606 36.7605 54.5027 35.7182 53.5518C36.3149 53.165 36.8877 52.7114 37.3909 52.2869C39.328 50.6516 41.5748 48.2444 43.7176 45.509C45.8601 42.7743 47.6587 40.0167 48.7821 37.7443C49.7117 35.8638 50.7693 33.2235 49.2247 32.0119C47.9665 31.0263 45.8849 31.8491 43.0174 34.456C43.057 34.0911 43.088 33.7345 43.1074 33.39C43.3335 29.3638 42.0535 28.0301 40.9398 27.6205C38.9703 26.896 36.7699 28.7395 34.8152 31.6621C34.3341 27.6649 33.2724 25.6095 31.6429 25.5432C29.6958 25.4647 28.7764 28.1606 28.2656 30.1953C27.6481 32.6539 27.2306 35.9193 27.0897 39.3903C26.9484 42.8624 27.0991 46.1521 27.5145 48.6528C27.6252 49.3201 27.7719 50.0589 27.9853 50.757C26.6175 50.8204 25.2609 51.1478 23.9801 51.7395C21.3775 52.9416 19.3997 55.0851 18.411 57.774C17.4925 60.268 16.3373 63.9355 14.7341 72.2246L17.3803 72.737ZM37.4081 67.8394C38.4146 66.879 39.5178 65.9518 40.6581 65.074C38.9005 67.9736 37.6874 71.35 37.6874 74.9307C37.6874 75.1151 37.6941 75.2986 37.6979 75.4827H33.6231C35.2001 72.4527 36.5109 69.7819 37.4081 67.8394ZM57.3516 71.2317H52.4178V73.927H56.9651C56.964 74.4515 57.002 74.9712 57.0831 75.4827H48.0018C47.9999 75.2986 47.9969 75.1151 47.9969 74.9307C47.9969 68.7008 49.7109 63.5021 51.0979 60.6062V60.9944H51.1006L51.1003 60.6014C51.5275 59.7098 51.9243 59.034 52.2294 58.6179C53.055 59.7006 54.5662 62.6401 55.5608 67.1599L58.1933 66.5809C57.6707 64.205 56.9262 61.9097 56.0678 60.0001C58.2084 61.2348 60.8471 62.8792 63.3486 64.7662C61.3385 65.5163 59.5965 66.9243 58.4289 68.81C57.9583 69.5668 57.5985 70.3829 57.3516 71.2317ZM40.3932 75.4827C40.3889 75.2986 40.3827 75.1154 40.3827 74.9307C40.3827 69.5959 43.568 65.2298 45.4669 63.1021C46.3922 62.0652 47.3083 61.2111 48.1579 60.5235C47.987 60.9291 47.8263 61.3348 47.6775 61.7299C46.7902 64.0867 45.3019 68.9356 45.3019 74.9307C45.3019 75.1151 45.3049 75.2986 45.3068 75.4827H40.3932ZM118.851 78.2524C118.851 97.6711 103.052 113.469 83.6341 113.469H50.6238C32.0032 113.469 16.5615 98.9233 15.4691 80.3545C15.4281 79.6589 15.4074 78.9516 15.4074 78.2524V78.1781H118.851V78.2524H118.851ZM80.4587 73.9397C80.4587 70.2856 83.4325 67.3132 87.0881 67.3132C90.7422 67.3132 93.7148 70.2859 93.7148 73.9397C93.7148 74.4644 93.6472 74.9795 93.527 75.4827H80.6474C80.5264 74.9809 80.4587 74.4658 80.4587 73.9397ZM79.3305 64.9171C80.0717 64.5899 80.7962 64.2309 81.4808 63.8514C83.1759 62.9169 85.1003 62.4229 87.0458 62.4229C90.1559 62.4229 93.0709 63.6438 95.2539 65.8605C97.436 68.0766 98.6111 71.0109 98.5629 74.1221C98.5556 74.5798 98.5184 75.0345 98.458 75.4827H96.2802C96.3646 74.9755 96.4096 74.4607 96.4096 73.9397C96.4096 68.7997 92.2276 64.6179 87.0876 64.6179C81.946 64.6179 77.7629 68.7997 77.7629 73.9397C77.7629 74.4612 77.8079 74.976 77.8925 75.4827H59.8261C59.6992 74.9124 59.6426 74.3259 59.6604 73.7302C59.697 72.4955 60.0625 71.2864 60.7185 70.2309C61.9581 68.2288 64.0807 66.968 66.3962 66.858C66.7706 66.8402 67.1415 66.8505 67.4989 66.8882C71.3863 67.2971 75.4767 66.616 79.3305 64.9171ZM54.5404 50.7249C54.7678 50.4975 55.0091 50.322 55.2484 50.1867C54.9508 52.1769 54.7867 54.1836 54.7546 56.1856C54.2751 55.9317 53.8698 55.7229 53.552 55.5619V53.1114C53.552 52.2098 53.9029 51.3624 54.5404 50.7249ZM49.16 50.1867C49.3993 50.322 49.6405 50.4975 49.868 50.7249C50.5055 51.3624 50.8564 52.2098 50.8564 53.1114V55.5617C50.5386 55.7223 50.1319 55.932 49.6538 56.1851C49.6219 54.1833 49.4578 52.1769 49.16 50.1867ZM47.16 34.6517C46.6566 36.2371 44.9534 39.5612 41.5956 43.8476C40.7708 44.9004 39.9792 45.841 39.2323 46.676C39.8859 45.368 40.4824 43.978 40.9956 42.5832C41.4056 41.4698 41.7573 40.3623 42.0559 39.2796C44.4168 36.6605 46.1695 35.2538 47.16 34.6517ZM40.0064 30.1578C40.5776 30.7023 40.9506 34.9008 38.4666 41.6523C35.982 48.4043 32.9765 51.3597 32.1889 51.4039C31.6178 50.8594 31.2445 46.661 33.7288 39.9092C36.2133 33.1572 39.2188 30.202 40.0064 30.1578ZM29.7828 39.5006C30.0036 34.0604 30.8615 30.4252 31.5054 28.8916C31.88 30.0236 32.318 32.3224 32.4013 36.0261L32.4162 36.0258C31.9744 36.9888 31.5658 37.9826 31.1992 38.9785C30.624 40.5418 30.1319 42.1689 29.7661 43.7519C29.7206 42.4846 29.719 41.066 29.7828 39.5006Z" fill="#136160"/>
<path d="M22.1477 63.1939L25.7083 64.5039L26.6389 61.9744L23.0783 60.6643L22.1477 63.1939Z" fill="#136160"/>
<path d="M122.237 70.8038C121.265 71.5032 120.08 71.7822 118.898 71.5905L118.466 74.2508C118.855 74.3142 119.246 74.3457 119.633 74.3457C121.125 74.3457 122.577 73.8802 123.812 72.9913C125.367 71.8711 126.393 70.2119 126.701 68.3198C127.009 66.4277 126.561 64.5291 125.441 62.9736L123.254 64.5488C123.954 65.5202 124.233 66.7058 124.041 67.8872C123.849 69.0683 123.208 70.1041 122.237 70.8038Z" fill="#136160"/>
<path d="M99.015 44.8857L99.7599 42.2952C96.6706 41.4076 93.4335 43.1981 92.5451 46.2878C91.657 49.3777 93.4483 52.6139 96.538 53.5023L97.2824 50.9119C95.621 50.4342 94.6583 48.6939 95.1356 47.0325C95.6132 45.3711 97.3536 44.4081 99.015 44.8857Z" fill="#136160"/>
<path d="M52.0063 26.9807H54.7016V23.6417H58.0408V20.9464H54.7016V17.6072H52.0063V20.9464H48.6674V23.6417H52.0063V26.9807Z" fill="#136160"/>
<path d="M83.5563 39.0346H86.2516V35.6957H89.5908V33.0004H86.2516V29.6611H83.5563V33.0004H80.217V35.6957H83.5563V39.0346Z" fill="#136160"/>
<path d="M11.9971 50.4577H14.6924V47.1188H18.0316V44.4235H14.6924V41.0842H11.9971V44.4235H8.65784V47.1188H11.9971V50.4577Z" fill="#136160"/>
</svg>
