<svg width="134" height="134" viewBox="0 0 134 134" fill="none" xmlns="http://www.w3.org/2000/svg">
<path d="M110.495 120.057C110.495 120.057 110.495 120.057 110.495 120.056V115.812C110.495 115.54 110.492 115.267 110.484 114.994C110.479 114.758 110.471 114.522 110.461 114.288C110.453 114.108 110.445 113.929 110.432 113.75C110.43 113.638 110.422 113.527 110.412 113.418C110.399 113.207 110.383 112.999 110.365 112.789C110.347 112.576 110.326 112.363 110.305 112.15C109.674 105.975 107.443 100.13 103.811 95.1248C103.694 94.9637 103.575 94.803 103.455 94.6416C103.325 94.4705 103.198 94.3013 103.066 94.1328C102.925 93.9509 102.78 93.7691 102.635 93.5898C102.621 93.574 102.608 93.5558 102.596 93.5405C102.567 93.5067 102.541 93.4727 102.512 93.4392C102.388 93.2857 102.26 93.1353 102.131 92.9846C101.988 92.8106 101.84 92.6391 101.689 92.4703C101.606 92.3741 101.523 92.2806 101.434 92.1871C101.172 91.8907 100.899 91.6 100.622 91.3117C100.59 91.2779 100.559 91.2468 100.528 91.213C100.388 91.0673 100.245 90.9247 100.099 90.7818C99.9255 90.6077 99.7488 90.4337 99.5696 90.2649C99.4215 90.1246 99.2734 89.9843 99.1254 89.8469C98.9721 89.7064 98.8189 89.5663 98.663 89.4287C98.5279 89.3066 98.3902 89.1897 98.2554 89.0702C93.9534 85.3374 88.8701 82.7368 83.3916 81.4354C81.5005 80.9808 79.5601 80.6847 77.5885 80.5525V71.7308C83.7085 69.1903 88.7194 64.499 91.6753 58.6101C91.7714 58.4204 91.8647 58.228 91.9559 58.0357C92.1452 57.6435 92.3221 57.2434 92.4884 56.8408C92.5715 56.6385 92.6546 56.4353 92.7323 56.233C92.8105 56.0303 92.8884 55.8251 92.9637 55.6199C93.0183 55.4666 93.0728 55.3134 93.1248 55.1575C93.1635 55.0513 93.2001 54.9419 93.2339 54.8328C93.2755 54.7058 93.3168 54.5785 93.356 54.451C93.3898 54.3419 93.4235 54.2356 93.4547 54.1263C93.569 53.747 93.6732 53.3628 93.769 52.9781C93.8002 52.8612 93.8288 52.7446 93.8547 52.6248C93.8859 52.5004 93.9145 52.3757 93.9405 52.251C93.9563 52.1887 93.969 52.1263 93.982 52.0614C94.0132 51.9136 94.0444 51.7681 94.0729 51.62C94.2732 50.6173 94.4158 49.5991 94.5016 48.5678C94.5093 48.5003 94.5145 48.4301 94.5197 48.3626C97.5096 47.7469 99.7745 44.897 99.7745 41.4892C99.7745 38.1068 97.5486 35.2782 94.5974 34.6288V31.5765H97.2029C97.5691 31.5765 97.9172 31.4233 98.1637 31.1531C98.4079 30.8829 98.53 30.5216 98.4962 30.1553L96.6025 10.0471C96.2726 6.56291 93.3866 3.93408 89.8876 3.93408H44.2156C40.7166 3.93408 37.8306 6.56291 37.5007 10.0464L35.607 30.1546C35.5732 30.5208 35.6953 30.8822 35.9395 31.1523C36.186 31.4225 36.5341 31.5757 36.9003 31.5757H39.5058V34.628C36.5549 35.2774 34.3287 38.1063 34.3287 41.4884C34.3287 44.8963 36.5938 47.7462 39.5835 48.3618C39.5889 48.4293 39.5939 48.4995 39.6016 48.567C39.6874 49.5983 39.8302 50.6166 40.0303 51.6193C40.0586 51.7673 40.0897 51.9128 40.1212 52.0606C40.1342 52.1255 40.1472 52.1879 40.1627 52.2502C40.1887 52.3749 40.2173 52.4996 40.2485 52.624C40.2744 52.7438 40.303 52.8604 40.3342 52.9773C40.43 53.3618 40.5342 53.7462 40.6482 54.1255C40.6797 54.2348 40.7132 54.3411 40.7472 54.4502C40.7859 54.5775 40.8277 54.7048 40.8693 54.832C40.9031 54.9411 40.9397 55.0505 40.9784 55.1567C41.0304 55.3129 41.0849 55.4659 41.1395 55.6191C41.2148 55.8243 41.2927 56.0296 41.3707 56.2322C41.4486 56.4345 41.5317 56.6377 41.6148 56.84C41.7811 57.2427 41.9577 57.6427 42.1474 58.035C42.2385 58.2272 42.3318 58.4194 42.4279 58.6093C45.384 64.4982 50.3949 69.1893 56.5147 71.7301V80.5517C54.5431 80.6842 52.6027 80.98 50.7116 81.4346C45.2331 82.7361 40.1495 85.3366 35.8478 89.0694C35.7124 89.1889 35.575 89.3058 35.4402 89.4279C35.2841 89.5656 35.1311 89.7056 34.9778 89.8461C34.8298 89.9835 34.6814 90.1238 34.5336 90.2641C34.3544 90.4329 34.1777 90.607 34.0037 90.781C33.858 90.9239 33.7154 91.0667 33.5751 91.2122C33.5439 91.246 33.5127 91.2772 33.4816 91.3109C33.2039 91.5993 32.9311 91.8899 32.6685 92.1863C32.5802 92.2796 32.4973 92.3734 32.4142 92.4695C32.2635 92.6383 32.1155 92.81 31.9726 92.9838C31.8427 93.1345 31.7154 93.2849 31.5907 93.4384C31.5622 93.4719 31.5362 93.5059 31.5076 93.5397C31.4946 93.5553 31.4816 93.5735 31.4686 93.5891C31.3232 93.768 31.178 93.9501 31.0374 94.132C30.905 94.3006 30.7777 94.4697 30.6478 94.6409C30.5286 94.8022 30.4088 94.963 30.2922 95.124C26.6606 100.13 24.4293 105.975 23.798 112.149C23.7772 112.362 23.7565 112.575 23.7383 112.788C23.7201 112.998 23.7045 113.206 23.6915 113.417C23.6811 113.526 23.6733 113.638 23.6707 113.749C23.6578 113.928 23.65 114.108 23.6422 114.287C23.6318 114.52 23.6242 114.757 23.6188 114.993C23.611 115.266 23.6084 115.539 23.6084 115.812V120.056C23.6084 120.056 23.6084 120.056 23.6084 120.056C23.6084 120.057 23.6084 120.057 23.6084 120.057V127.842C23.6084 128.559 24.1903 129.141 24.9072 129.141H40.8049H93.2983H109.196C109.913 129.141 110.495 128.559 110.495 127.842V120.058C110.495 120.057 110.495 120.057 110.495 120.057ZM98.4884 92.8467C98.5819 92.9376 98.6703 93.0285 98.7586 93.122C98.8547 93.2207 98.9508 93.3194 99.0391 93.4207C99.1327 93.514 99.2184 93.6078 99.3044 93.7039C99.5979 94.0234 99.8834 94.3481 100.164 94.678C100.289 94.8261 100.414 94.9767 100.538 95.1274C100.551 95.1453 100.567 95.1609 100.58 95.1791C100.59 95.1923 100.603 95.2077 100.614 95.2207C100.741 95.3739 100.863 95.5272 100.982 95.683C100.998 95.7064 101.016 95.7272 101.034 95.7506C101.284 96.0727 101.528 96.3974 101.764 96.7273C101.764 96.7302 101.767 96.7302 101.767 96.7302C101.873 96.8808 101.98 97.0315 102.086 97.1819C105.323 101.865 107.292 107.352 107.778 113.033C107.796 113.238 107.812 113.441 107.825 113.646C107.83 113.727 107.835 113.804 107.84 113.885C107.851 114.043 107.858 114.199 107.864 114.358C107.874 114.586 107.882 114.815 107.887 115.046C107.895 115.3 107.898 115.555 107.898 115.812V118.758H94.5977V106.612C94.5977 105.894 94.0163 105.313 93.2988 105.313C92.5814 105.313 92 105.894 92 106.612V120.057V126.543H68.3504V94.9978C71.6027 93.8026 81.5647 89.7321 83.5181 84.1471C88.2435 85.3942 92.6422 87.7147 96.3651 90.8789C96.5233 91.014 96.6831 91.1468 96.8389 91.2852C96.9298 91.3608 97.0179 91.4385 97.1039 91.519C97.2312 91.633 97.3561 91.7476 97.4805 91.8645C97.5585 91.9346 97.6367 92.0074 97.7143 92.0853C97.826 92.1869 97.9377 92.296 98.0494 92.4048C98.1975 92.5531 98.3456 92.6986 98.4884 92.8467ZM97.1766 41.4884C97.1766 43.4 96.0989 45.0316 94.5971 45.6392V37.3345C96.0986 37.9426 97.1766 39.5765 97.1766 41.4884ZM36.9266 41.4884C36.9266 39.5765 38.0044 37.9426 39.5061 37.3347V45.6395C38.0046 45.0316 36.9266 43.4003 36.9266 41.4884ZM42.2518 48.98C42.2336 48.845 42.2206 48.7044 42.2102 48.5696C42.2074 48.5436 42.2048 48.5151 42.2024 48.4888H77.9721C78.6891 48.4888 79.271 47.9098 79.271 47.19C79.271 46.473 78.6891 45.8912 77.9721 45.8912H42.1037V35.7837V31.5757H46.3561C47.073 31.5757 47.6549 30.9939 47.6549 30.2769C47.6549 29.56 47.073 28.9781 46.3561 28.9781H42.1037H39.5061H38.3267L40.0879 10.2905C40.2905 8.14748 42.0647 6.53174 44.2156 6.53174H89.8876C92.0382 6.53174 93.8124 8.14748 94.0153 10.2905L95.7765 28.9781H94.5971H91.9995H52.1618C51.4449 28.9781 50.863 29.56 50.863 30.2769C50.863 30.9939 51.4449 31.5757 52.1618 31.5757H91.9995V35.7837V45.8912H85.495C84.778 45.8912 84.1961 46.473 84.1961 47.19C84.1961 47.9098 84.778 48.4888 85.495 48.4888H91.9008C91.8982 48.5151 91.8953 48.5436 91.893 48.5696C91.8826 48.7047 91.8696 48.8452 91.8514 48.98C91.8306 49.1879 91.8047 49.3931 91.7761 49.5983C91.6774 50.336 91.5475 51.0657 91.3838 51.7855C91.3423 51.9647 91.3007 52.144 91.2566 52.3232C91.215 52.5022 91.1682 52.6817 91.1163 52.8583C91.0643 53.0456 91.0126 53.2298 90.9552 53.4145C90.9165 53.5519 90.8747 53.6873 90.8282 53.8221C90.8152 53.8691 90.7996 53.9156 90.7838 53.9623C90.7451 54.0922 90.7033 54.2195 90.6568 54.3468C90.6305 54.4219 90.6048 54.4975 90.576 54.5725C90.5347 54.7024 90.4877 54.8297 90.4386 54.957C90.3087 55.3025 90.1733 55.643 90.0307 55.9802C89.9632 56.1516 89.8879 56.3182 89.8097 56.487C88.5215 59.3338 86.6925 61.9447 84.3808 64.1836C82.3572 66.1425 80.0635 67.7219 77.5882 68.883C76.744 69.2831 75.8761 69.6311 74.9906 69.9273C74.5227 70.0857 74.0528 70.2312 73.5746 70.3611C73.0007 70.5172 72.4215 70.652 71.8344 70.7666C71.2499 70.8806 70.6577 70.9744 70.0628 71.0469C69.894 71.0677 69.7199 71.0884 69.5511 71.1017C69.4887 71.1092 69.4238 71.1173 69.3588 71.1225C69.2264 71.1354 69.0936 71.1458 68.9614 71.1562C68.7536 71.1718 68.5458 71.1848 68.3354 71.1949C68.2678 71.2004 68.2003 71.2027 68.1304 71.2053C68.0392 71.2108 67.9457 71.2131 67.8548 71.2131C67.7353 71.2183 67.6158 71.2209 67.4963 71.2235C67.3483 71.2261 67.2002 71.229 67.0521 71.229C66.9041 71.229 66.7557 71.2261 66.6079 71.2235C66.4884 71.2209 66.3689 71.2181 66.2494 71.2131C66.1585 71.2131 66.065 71.2105 65.9738 71.2053C65.9037 71.2027 65.8364 71.2001 65.7689 71.1949C65.5582 71.1848 65.3507 71.1716 65.1428 71.1562C65.0101 71.1458 64.8776 71.1354 64.7454 71.1225C64.6805 71.117 64.6155 71.1092 64.5532 71.1017C64.3846 71.0884 64.2105 71.0677 64.0414 71.0469C63.4466 70.9744 62.8543 70.8806 62.2698 70.7666C61.6828 70.6523 61.1035 70.5172 60.5294 70.3611C60.0514 70.2312 59.5815 70.0857 59.1137 69.9273C58.2281 69.6311 57.3603 69.2833 56.516 68.883C54.0407 67.7219 51.747 66.1425 49.7234 64.1836C47.4115 61.9447 45.5828 59.3338 44.2943 56.487C44.2164 56.3182 44.1411 56.1516 44.0735 55.9802C43.9306 55.6428 43.7956 55.3025 43.6657 54.957C43.6166 54.8297 43.5696 54.7024 43.528 54.5725C43.4997 54.4975 43.4737 54.4219 43.4475 54.3468C43.4007 54.2195 43.3592 54.0922 43.3202 53.9623C43.3046 53.9156 43.289 53.8691 43.276 53.8221C43.2293 53.687 43.1877 53.5519 43.149 53.4145C43.0916 53.2298 43.0399 53.0456 42.9877 52.8583C42.936 52.6817 42.8892 52.5025 42.8477 52.3232C42.8035 52.144 42.762 51.9647 42.7204 51.7855C42.5567 51.0657 42.4269 50.336 42.3281 49.5983C42.2985 49.3931 42.2723 49.1879 42.2518 48.98ZM57.8582 83.0847C58.557 83.061 59.1129 82.4872 59.1129 81.7858V72.6603C59.1469 72.6704 59.1807 72.6811 59.2145 72.6886C59.4249 72.7509 59.6353 72.8109 59.8457 72.8678C60.2665 72.9847 60.6899 73.0886 61.1186 73.1821C61.3965 73.2419 61.6771 73.299 61.9573 73.351C62.1109 73.3819 62.2641 73.4081 62.4174 73.4339C62.6356 73.4728 62.8512 73.5066 63.0694 73.5378C63.4694 73.5972 63.8695 73.6469 64.275 73.6856C64.4204 73.7014 64.563 73.7141 64.7088 73.7245C65.0153 73.7531 65.3242 73.7736 65.6359 73.7895C65.7112 73.7947 65.7865 73.7973 65.8619 73.7999C66.2567 73.818 66.6542 73.8261 67.0516 73.8261C67.449 73.8261 67.8467 73.8183 68.2413 73.7999C68.3167 73.7973 68.392 73.7944 68.4673 73.7895C68.779 73.7736 69.0882 73.7531 69.3944 73.7245C69.5402 73.7141 69.6828 73.7012 69.8282 73.6856C70.2337 73.6469 70.6338 73.5972 71.0338 73.5378C71.252 73.5066 71.4676 73.4728 71.6858 73.4339C71.8391 73.4079 71.9923 73.3819 72.1456 73.351C72.4261 73.299 72.7067 73.2419 72.9846 73.1821C73.4133 73.0886 73.8367 72.9847 74.2575 72.8678C74.4679 72.8107 74.6781 72.7509 74.8887 72.6886C74.9225 72.6811 74.9563 72.6704 74.9903 72.6603V81.7858C74.9903 82.4872 75.5462 83.061 76.2447 83.0847C77.8371 83.1366 79.4112 83.3029 80.9571 83.578C79.3907 87.2071 72.0394 90.9449 67.0568 92.7064C65.9944 92.3193 63.0437 91.192 60.0951 89.5814C56.3596 87.5396 53.9519 85.4514 53.1463 83.5782C54.692 83.3029 56.2661 83.1366 57.8582 83.0847ZM32.3363 96.7302C32.3363 96.7302 32.3391 96.7302 32.3391 96.7273C32.5755 96.3974 32.8197 96.0727 33.0691 95.7506C33.0872 95.7272 33.1057 95.7064 33.121 95.683C33.2405 95.5269 33.3629 95.3739 33.4899 95.2207C33.5003 95.2077 33.5133 95.1923 33.5237 95.1791C33.5369 95.1609 33.5522 95.1453 33.5652 95.1274C33.6899 94.9767 33.8146 94.8261 33.9393 94.678C34.2196 94.3481 34.5056 94.0234 34.7991 93.7039C34.8848 93.6078 34.9705 93.5143 35.0641 93.4207C35.1526 93.3192 35.2488 93.2205 35.3446 93.122C35.4332 93.0288 35.5215 92.9376 35.615 92.8467C35.7579 92.6986 35.9057 92.5531 36.0538 92.4051C36.1655 92.296 36.2772 92.1869 36.3889 92.0855C36.4668 92.0076 36.545 91.9349 36.6224 91.8647C36.7471 91.7479 36.872 91.6333 36.9993 91.5193C37.0848 91.4385 37.1734 91.3611 37.2643 91.2855C37.4204 91.147 37.5799 91.014 37.7381 90.8792C41.4611 87.715 45.8597 85.3945 50.5848 84.1474C52.5385 89.7323 62.5005 93.8029 65.7528 94.998V126.543H42.1037V120.057V106.612C42.1037 105.894 41.5224 105.313 40.8049 105.313C40.0874 105.313 39.5061 105.894 39.5061 106.612V118.759H26.2061V115.813C26.2061 115.556 26.2087 115.301 26.2164 115.046C26.2219 114.815 26.2294 114.586 26.2398 114.358C26.2453 114.2 26.2528 114.044 26.2661 113.885C26.2687 113.805 26.2736 113.727 26.279 113.646C26.292 113.441 26.3076 113.239 26.3258 113.034C26.8116 107.352 28.7806 101.866 32.0173 97.1824C32.1235 97.0317 32.23 96.8811 32.3363 96.7302ZM26.2061 121.356H39.5061V126.543H26.2061V121.356ZM94.5971 126.543V121.356H107.897V126.543H94.5971Z" fill="#136160"/>
<path d="M86.6875 113.199H73.707C72.9896 113.199 72.4082 113.781 72.4082 114.498C72.4082 115.216 72.9896 115.797 73.707 115.797H86.6875C87.405 115.797 87.9863 115.216 87.9863 114.498C87.9863 113.781 87.405 113.199 86.6875 113.199Z" fill="#136160"/>
<path d="M53.9067 54.9346H80.1963C80.9138 54.9346 81.4951 54.3532 81.4951 53.6357C81.4951 52.9183 80.9138 52.3369 80.1963 52.3369H53.9067C53.1893 52.3369 52.6079 52.9183 52.6079 53.6357C52.6079 54.3532 53.1895 54.9346 53.9067 54.9346Z" fill="#136160"/>
<path d="M77.3611 57.1655H56.7422C56.0247 57.1655 55.4434 57.7469 55.4434 58.4644C55.4434 59.1818 56.0247 59.7632 56.7422 59.7632H77.3611C78.0786 59.7632 78.6599 59.1818 78.6599 58.4644C78.6599 57.7469 78.0783 57.1655 77.3611 57.1655Z" fill="#136160"/>
<path d="M72.5663 61.9944H61.5366C60.8197 61.9944 60.2378 62.5763 60.2378 63.2932C60.2378 64.0102 60.8197 64.592 61.5366 64.592H72.5665C73.2835 64.592 73.8654 64.0102 73.8654 63.2932C73.8654 62.5763 73.2832 61.9944 72.5663 61.9944Z" fill="#136160"/>
<path d="M53.9068 41.4869C55.1354 41.4869 56.1314 40.4909 56.1314 39.2622C56.1314 38.0336 55.1354 37.0376 53.9068 37.0376C52.6781 37.0376 51.6821 38.0336 51.6821 39.2622C51.6821 40.4909 52.6781 41.4869 53.9068 41.4869Z" fill="#136160"/>
<path d="M80.1971 41.4871C81.4258 41.4871 82.422 40.491 82.422 39.2622C82.422 38.0335 81.4258 37.0374 80.1971 37.0374C78.9683 37.0374 77.9722 38.0335 77.9722 39.2622C77.9722 40.491 78.9683 41.4871 80.1971 41.4871Z" fill="#136160"/>
<path d="M63.2852 7.53076V13.7653H57.1431V21.4118H63.2852V27.6463H70.8184V21.4118H76.9606V13.7653H70.8184V7.53076H63.2852ZM74.3629 16.402V18.775H68.2208V25.0096H65.8829V18.775H59.7407V16.402H65.8829V10.1675H68.2208V16.402H74.3629Z" fill="#136160"/>
</svg>
